<?xml version="1.0" encoding="UTF-8" standalone="no"?>
<svg
   xmlns:dc="http://purl.org/dc/elements/1.1/"
   xmlns:cc="http://creativecommons.org/ns#"
   xmlns:rdf="http://www.w3.org/1999/02/22-rdf-syntax-ns#"
   xmlns:svg="http://www.w3.org/2000/svg"
   xmlns="http://www.w3.org/2000/svg"
   xmlns:sodipodi="http://sodipodi.sourceforge.net/DTD/sodipodi-0.dtd"
   xmlns:inkscape="http://www.inkscape.org/namespaces/inkscape"
   width="50"
   height="50"
   viewBox="0 0 50 50"
   version="1.1"
   id="svg8"
   inkscape:version="1.0 (4035a4fb49, 2020-05-01)"
   sodipodi:docname="mars_notification.svg">
  <defs
     id="defs2" />
  <sodipodi:namedview
     id="base"
     pagecolor="#ffffff"
     bordercolor="#666666"
     borderopacity="1.0"
     inkscape:pageopacity="0.0"
     inkscape:pageshadow="2"
     inkscape:zoom="11.2"
     inkscape:cx="24.92"
     inkscape:cy="23.71"
     inkscape:document-units="px"
     inkscape:current-layer="layer1"
     inkscape:document-rotation="0"
     showgrid="false"
     units="px"
     inkscape:window-width="1898"
     inkscape:window-height="1020"
     inkscape:window-x="172"
     inkscape:window-y="19"
     inkscape:window-maximized="1" />
  <metadata
     id="metadata5">
    <rdf:RDF>
      <cc:Work
         rdf:about="">
        <dc:format>image/svg+xml</dc:format>
        <dc:type
           rdf:resource="http://purl.org/dc/dcmitype/StillImage" />
        <dc:title />
      </cc:Work>
    </rdf:RDF>
  </metadata>
  <g
     inkscape:label="Calque 1"
     inkscape:groupmode="layer"
     id="layer1">
    <path
       d="M 24.89,4.15 C 16.38,4.079 8.226,9.813 5.415,17.85 2.387,25.81 4.927,35.45 11.48,40.88 17.92,46.51 27.9,47.46 35.28,43.14 42.78,39.02 47.09,29.97 45.56,21.56 44.27,13.15 37.31,6.015 28.93,4.524 27.6,4.268 26.24,4.143 24.89,4.15 Z M 15.21,9.227 C 17.26,9.074 18.91,11.1 18.56,13.07 18.25,16.13 14.9,18.95 11.83,17.82 9.616,16.92 9.435,13.93 10.62,12.13 11.56,10.52 13.3,9.266 15.21,9.227 Z M 35.23,10.53 C 38.72,10.77 41.42,13.99 42.09,17.26 42.59,19.22 41.73,21.85 39.48,22.16 36.4,22.51 33.77,19.97 32.55,17.35 31.58,15.35 31.33,12.27 33.5,10.95 34.02,10.65 34.63,10.52 35.23,10.53 Z M 18.45,27.62 C 22.26,27.49 25.6,31.65 24.21,35.31 23.22,38.26 19.39,39.37 16.78,37.89 13.78,36.51 12.31,32.28 14.45,29.57 15.38,28.33 16.91,27.62 18.45,27.62 Z M 39.82,33.53 C 40.89,33.38 41.44,34.6 41.06,35.48 40.24,37.86 38.13,39.87 35.67,40.47 34.72,40.78 33.68,39.97 33.95,38.95 34.49,36.52 36.57,34.59 38.84,33.71 39.16,33.6 39.49,33.53 39.82,33.53 Z"
       style="opacity:0.6152;fill:#ff0000;fill-opacity:1;stroke:none;stroke-width:0.6239;stroke-linecap:round;stroke-linejoin:round"
       id="path837" />
  </g>
</svg>
