<?xml version="1.0" encoding="UTF-8"?>
<svg width="100" height="100" version="1.1" viewBox="0 0 100 100" xmlns="http://www.w3.org/2000/svg" xmlns:cc="http://creativecommons.org/ns#" xmlns:dc="http://purl.org/dc/elements/1.1/" xmlns:rdf="http://www.w3.org/1999/02/22-rdf-syntax-ns#" xmlns:xlink="http://www.w3.org/1999/xlink">
 <defs>
  <radialGradient id="radialGradient1314" cx="16.5" cy="16.8" r="22.2" gradientTransform="matrix(2.18 2.54 -1.88 1.62 23.3 -39.3)" gradientUnits="userSpaceOnUse">
   <stop stop-color="#f60" stop-opacity=".47" offset="0"/>
   <stop stop-color="#e9afaf" stop-opacity="0" offset="1"/>
  </radialGradient>
  <radialGradient id="radialGradient1596" cx="24.4" cy="24.2" r="18.9" gradientTransform="matrix(2.89 .0145 -.0134 2.69 -21.5 -16.6)" gradientUnits="userSpaceOnUse">
   <stop stop-opacity="0" offset="0"/>
   <stop stop-opacity=".316" offset=".475"/>
   <stop stop-color="#280b0b" stop-opacity=".945" offset="1"/>
  </radialGradient>
 </defs>
 <metadata>
  <rdf:RDF>
   <cc:Work rdf:about="">
    <dc:format>image/svg+xml</dc:format>
    <dc:type rdf:resource="http://purl.org/dc/dcmitype/StillImage"/>
    <dc:title/>
   </cc:Work>
  </rdf:RDF>
 </metadata>
 <g>
  <circle cx="50" cy="50" r="46.6" fill="#d40000"/>
  <circle cx="50" cy="50" r="46.6" fill="url(#radialGradient1314)" stroke-width="0"/>
  <path d="m86.9 21.6a57.4 55 0 0 1 0.61 7.98 57.4 55 0 0 1-57.4 55 57.4 55 0 0 1-12.8-1.38 46.6 46.6 0 0 0 32.7 13.4 46.6 46.6 0 0 0 46.6-46.6 46.6 46.6 0 0 0-9.65-28.4z" fill="url(#radialGradient1596)" opacity=".29" stroke-width="0"/>
  <path d="m53.1 3.5a159 75.5 41.3 0 1-10.1 31.6 159 75.5 41.3 0 1-39.6 14.3 46.6 46.6 0 0 0-4e-3 0.6 46.6 46.6 0 0 0 3.09 16.7 114 75.5 46.3 0 0 47.7-14.8 114 75.5 46.3 0 0 17.4-43.2 46.6 46.6 0 0 0-18.5-5.2z" fill="#310202" opacity=".15" stroke-linecap="round" stroke-linejoin="round" stroke-width="16.9"/>
  <g fill="#280b0b">
   <g stroke-width="0">
    <path d="m17.8 25.7c-3.94 3.12-5.85 8.22-4.27 11.4 0.3 0.6 0.7 1.11 1.2 1.51-1.38-3.97 0.79-9.55 5.04-12.9 0.02-0.02 0.06-0.04 0.08-0.06 1.49-1.18 3.13-1.98 4.72-2.33-2.05-0.3-4.51 0.52-6.69 2.22-0.02 0.02-0.06 0.07-0.08 0.09z" opacity=".463"/>
    <path d="m19.8 25.8a7.68 10.8 39.2 0 0-5.03 12.9 6.3 9.37 41.8 0 0 8.95-1.3 6.3 9.37 41.8 0 0 4.33-11.5 6.3 9.37 41.8 0 0-3.45-2.45 7.68 10.8 39.2 0 0-4.72 2.33 7.68 10.8 39.2 0 0-0.08 0.06z" opacity=".25"/>
    <path d="m31.1 22.3c-1.38 0.9-2.06 2.37-1.49 3.29 0.11 0.15 0.23 0.3 0.42 0.42-0.48-1.13 0.27-2.73 1.76-3.69h0.05c0.5-0.34 1.09-0.57 1.63-0.69-0.71-0.07-1.57 0.16-2.35 0.65 0 0.02 0 0.02-0.02 0.02z" opacity=".463"/>
    <path d="m31.8 22.3a2.41 3.47 56.3 0 0-1.76 3.69 1.97 3.01 56.6 0 0 3.15-0.38 1.97 3.01 56.6 0 0 1.51-3.29 1.97 3.01 56.6 0 0-1.22-0.71 2.41 3.47 56.3 0 0-1.63 0.69 2.41 3.47 56.3 0 0-0.05 0z" opacity=".25"/>
   </g>
   <g>
    <path d="m80 78.6c-1.99-0.25-3.93 0.59-5.63 1.51-2.24 1.31-4.34 3.03-5.58 5.36-0.48 0.9-0.82 2.31 0.13 3.04 0.44-0.04 0.21-0.88 0.48-1.2 0.76-2.14 2.33-3.86 4.03-5.31 1.93-1.57 4.16-2.79 6.57-3.4z" opacity=".465"/>
    <path d="m80 78.6c-2.94 0.76-5.63 2.4-7.79 4.52-1.38 1.4-2.62 3.06-3.04 5.01-0.29 0.76 0.9 0.09 1.2 0.15 2.87-0.65 5.49-2.25 7.64-4.24 1.36-1.37 2.62-2.9 3.31-4.7-0.31-0.42-0.82-0.65-1.32-0.74z" opacity=".316"/>
    <path d="m68.9 88.5c1.4 0.97 3.25 0.38 4.72-0.13 2.73-1.09 5.2-2.89 6.95-5.26 0.71-1.05 1.55-2.57 0.75-3.78-0.82 2.08-2.31 3.82-3.97 5.29-2.39 2.01-5.31 3.59-8.45 3.88z" opacity=".208"/>
    <path d="m72.8 23.8c-1.34 0.06-2.71 0.48-3.74 1.36-1.19 1.93-1.07 4.41-0.33 6.49 1.05 2.91 3.17 5.37 5.77 7.01 0.69 0.44 1.43 0.8 2.18 1.09-1.32-0.71-2.5-1.64-3.52-2.69-1.31-1.32-2.31-2.92-2.96-4.66-0.61-1.61-0.82-3.4-0.36-5.08 0.31-1.15 0.99-2.26 1.99-2.96 0.3-0.23 0.63-0.42 0.97-0.56z" opacity=".459"/>
   </g>
  </g>
  <g>
   <path d="m72.8 23.8c-1.79 0.75-2.96 2.58-3.15 4.49-0.29 2.27 0.5 4.53 1.68 6.44 1.13 1.83 2.73 3.38 4.53 4.54 0.99 0.69 2.21 0.92 3.38 1.09 1.7 0.19 3.57-0.15 4.89-1.32 1.12-1.77 1.07-4.01 0.51-5.94-0.8-2.67-2.54-4.98-4.7-6.68-2.02-1.59-4.54-2.69-7.14-2.62z" opacity=".208"/>
   <path d="m78.8 23.8c-1.91-0.69-4.13-0.9-6.02-0.04 3.36-0.09 6.49 1.74 8.77 4.09 2.04 2.22 3.57 5.12 3.45 8.21-0.07 1.03-0.32 2.07-0.89 2.94 2-1.68 2.27-4.6 1.58-6.97-1.01-3.53-3.65-6.53-6.89-8.23z" opacity=".291"/>
   <path d="m74.1 22.6c-1.74-0.02-3.55 0.65-4.68 2.02-0.1 0.14-0.38 0.5-0.34 0.5 0.59-0.46 1.24-0.82 1.96-1.03 0.46-0.13 0.92-0.23 1.4-0.25 0.3 0 0.55-0.15 0.82-0.23 0.74-0.25 1.53-0.4 2.31-0.38 0.48 0 0.95 0.06 1.43 0.13 0.19 0.04 0.4 0.06 0.59 0.12 0.42 0.09 0.81 0.21 1.21 0.36-0.58-0.3-1.17-0.57-1.78-0.76-0.4-0.14-0.82-0.23-1.24-0.31-0.25-0.04-0.5-0.09-0.75-0.11-0.32-0.04-0.61-0.06-0.93-0.06z" opacity=".455"/>
  </g>
  <g fill="#280b0b">
   <path d="m34.8 75.3c1.26 1.72 3.29 2.79 5.27 3.5 3.84 1.31 8.52 0.49 11.2-2.64 2.47-2.75 2.77-7.01 1.13-10.2-0.4-0.74-0.75-1.56-1.45-2.06 1.79 2.79 2.19 6.53 0.63 9.51-1.4 2.85-4.45 4.68-7.58 4.95-3.31 0.36-6.73-0.82-9.23-3.02z" opacity=".307"/>
   <path d="m34.8 75.3c3.36 2.98 8.48 4.05 12.6 2.1 3.19-1.43 5.34-4.87 5.17-8.36-0.04-1.82-0.63-3.63-1.6-5.18-3.31-2.96-8.35-4.01-12.5-2.18-2.89 1.26-5.05 4.13-5.29 7.3-0.18 2.2 0.42 4.45 1.58 6.32z" opacity=".223"/>
   <path d="m41.4 59.2c-3.84-0.03-7.77 2.3-9.03 6.02-1.34 3.69 0.04 7.95 2.79 10.6-2.01-2.83-2.62-6.82-0.96-9.97 1.43-2.92 4.57-4.74 7.76-4.97 3.53-0.32 7.16 1.07 9.64 3.59-2.25-3.32-6.21-5.36-10.2-5.29z" opacity=".457"/>
  </g>
  <g fill="none" stroke="#f60" stroke-linecap="round" stroke-linejoin="round">
   <path transform="matrix(.915 -.404 .455 .89 0 0)" d="m48.8 44.6a53.5 51.9 0 0 1-16.6 14.5" opacity=".665" stroke-width="4.62"/>
   <path transform="matrix(.915 -.404 .455 .89 0 0)" d="m33.7 81.6a53.5 51.9 0 0 1-28.4 4.98" opacity=".665" stroke-width="5.25"/>
   <path transform="matrix(.964 -.265 .318 .948 0 0)" d="m35.2 73.5a53.5 51.9 0 0 1-33 3.54" opacity=".665" stroke-width="5.25"/>
   <path transform="matrix(.841 -.541 .588 .809 0 0)" d="m43.6 40.6a53.5 51.9 0 0 1-12.8 12.2" opacity=".665" stroke-width="4.62"/>
  </g>
 </g>
</svg>
