<?xml version="1.0" encoding="UTF-8" standalone="no"?>
<svg
   xmlns:dc="http://purl.org/dc/elements/1.1/"
   xmlns:cc="http://creativecommons.org/ns#"
   xmlns:rdf="http://www.w3.org/1999/02/22-rdf-syntax-ns#"
   xmlns:svg="http://www.w3.org/2000/svg"
   xmlns="http://www.w3.org/2000/svg"
   xmlns:sodipodi="http://sodipodi.sourceforge.net/DTD/sodipodi-0.dtd"
   xmlns:inkscape="http://www.inkscape.org/namespaces/inkscape"
   inkscape:version="1.0 (4035a4fb49, 2020-05-01)"
   sodipodi:docname="mars_notificationO.svg"
   id="svg839"
   viewBox="0 0 50 50"
   version="1.1"
   height="50"
   width="50">
  <defs
     id="defs843">
    <inkscape:path-effect
       fuse_tolerance="0"
       hide_knot="false"
       vertical_pattern="false"
       prop_units="false"
       tang_offset="0"
       normal_offset="0"
       spacing="0"
       scale_y_rel="false"
       prop_scale="0.3857"
       copytype="single_stretched"
       pattern="M 0,5 C 0,2.24 2.24,0 5,0 7.76,0 10,2.24 10,5 10,7.76 7.76,10 5,10 2.24,10 0,7.76 0,5 Z"
       lpeversion="1"
       is_visible="true"
       id="path-effect1416"
       effect="skeletal" />
  </defs>
  <sodipodi:namedview
     inkscape:current-layer="svg839"
     inkscape:window-maximized="1"
     inkscape:window-y="-11"
     inkscape:window-x="-11"
     inkscape:cy="27.17"
     inkscape:cx="20.83"
     inkscape:zoom="16"
     showgrid="false"
     id="namedview841"
     inkscape:window-height="986"
     inkscape:window-width="1920"
     inkscape:pageshadow="2"
     inkscape:pageopacity="0"
     guidetolerance="10"
     gridtolerance="10"
     objecttolerance="10"
     borderopacity="1"
     bordercolor="#666666"
     pagecolor="#ffffff" />
  <metadata
     id="metadata831">
    <rdf:RDF>
      <cc:Work
         rdf:about="">
        <dc:format>image/svg+xml</dc:format>
        <dc:type
           rdf:resource="http://purl.org/dc/dcmitype/StillImage" />
        <dc:title />
      </cc:Work>
    </rdf:RDF>
  </metadata>
  <path
     d="M 24.94,4.139 C 16.43,4.069 8.24,9.8 5.44,17.84 4.567,20.13 4.16,22.57 4.17,25 L 45.87,24.99 C 45.87,23.84 45.77,22.69 45.56,21.55 44.27,13.14 37.31,6.049 28.96,4.549 27.63,4.289 26.27,4.169 24.92,4.179 Z M 15.26,9.22 C 17.31,9.067 18.96,11.09 18.61,13.06 18.3,16.12 14.95,18.94 11.88,17.81 9.67,16.91 9.48,13.92 10.67,12.12 11.61,10.51 13.35,9.26 15.26,9.22 Z M 35.26,10.52 C 38.75,10.76 41.45,13.98 42.12,17.25 42.62,19.21 41.76,21.84 39.51,22.15 36.43,22.5 33.8,19.96 32.58,17.34 31.61,15.34 31.36,12.26 33.53,10.94 34.05,10.64 34.66,10.51 35.26,10.52 Z"
     opacity="0.615"
     id="path833"
     sodipodi:nodetypes="cccccscccccccccsssc"
     style="fill:#ff0000" />
  <path
     d="M 45.87,24.99 4.173,25 C 4.21,31.01 6.843,37 11.5,40.9 17.94,46.53 27.9,47.48 35.3,43.16 41.78,39.6 45.9,32.36 45.9,25.06 Z M 18.47,27.61 C 22.28,27.48 25.62,31.64 24.23,35.3 23.24,38.25 19.41,39.36 16.8,37.88 13.8,36.5 12.33,32.27 14.47,29.56 15.4,28.32 16.93,27.61 18.47,27.61 Z M 39.87,33.52 C 40.94,33.37 41.49,34.59 41.11,35.47 40.29,37.85 38.18,39.86 35.72,40.46 34.77,40.77 33.73,39.96 34,38.94 34.54,36.51 36.62,34.58 38.89,33.7 39.21,33.59 39.54,33.52 39.87,33.52 Z"
     opacity="0.615"
     id="path835"
     style="fill:#ff0000" />
  <path
     d="M 4.213 23.91 C 4.196 24.27 4.168 24.64 4.17 25 C 4.17 25.36 4.201 25.72 4.221 26.08 L 45.83 26.08 C 45.84 25.72 45.87 25.35 45.87 24.99 C 45.87 24.63 45.84 24.27 45.82 23.91 L 4.213 23.91 z "
     style="opacity:0.6152;fill:#ff0000;stroke-width:0.274084;stroke-linecap:round;stroke-linejoin:round"
     id="rect1420" />
</svg>
