<?xml version="1.0" encoding="UTF-8" standalone="no"?>
<svg
   xmlns:dc="http://purl.org/dc/elements/1.1/"
   xmlns:cc="http://creativecommons.org/ns#"
   xmlns:rdf="http://www.w3.org/1999/02/22-rdf-syntax-ns#"
   xmlns:svg="http://www.w3.org/2000/svg"
   xmlns="http://www.w3.org/2000/svg"
   xmlns:sodipodi="http://sodipodi.sourceforge.net/DTD/sodipodi-0.dtd"
   xmlns:inkscape="http://www.inkscape.org/namespaces/inkscape"
   inkscape:version="1.0 (4035a4fb49, 2020-05-01)"
   sodipodi:docname="menu.svg"
   id="svg6"
   version="1.1"
   width="24"
   viewBox="0 0 24 24"
   height="24">
  <metadata
     id="metadata12">
    <rdf:RDF>
      <cc:Work
         rdf:about="">
        <dc:format>image/svg+xml</dc:format>
        <dc:type
           rdf:resource="http://purl.org/dc/dcmitype/StillImage" />
        <dc:title></dc:title>
      </cc:Work>
    </rdf:RDF>
  </metadata>
  <defs
     id="defs10" />
  <sodipodi:namedview
     inkscape:current-layer="svg6"
     inkscape:window-maximized="1"
     inkscape:window-y="-11"
     inkscape:window-x="-11"
     inkscape:cy="11.94"
     inkscape:cx="-5.453"
     inkscape:zoom="11.79"
     showgrid="true"
     id="namedview8"
     inkscape:window-height="986"
     inkscape:window-width="1920"
     inkscape:pageshadow="2"
     inkscape:pageopacity="0"
     guidetolerance="10"
     gridtolerance="10"
     objecttolerance="10"
     borderopacity="1"
     bordercolor="#666666"
     pagecolor="#ffffff">
    <inkscape:grid
       id="grid837"
       type="xygrid" />
  </sodipodi:namedview>
  <path
     id="path2"
     fill="none"
     d="M0 0h24v24H0V0z" />
  <path
     sodipodi:nodetypes="sssssssssssssssssssss"
     id="path4"
     d="M 4,18 H 9.95 C 10.5,18 10.95,17.55 10.95,17 10.95,16.45 10.5,16 9.95,16 H 4 C 3.45,16 3,16.45 3,17 3,17.55 3.45,18 4,18 Z M 4,13 14.91,13 C 15.46,13 15.91,12.55 15.91,12 15.91,11.45 15.46,11 14.91,11 L 4,11 C 3.45,11 3,11.45 3,12 3,12.55 3.45,13 4,13 Z M 3,7 C 3,7.55 3.45,8 4,8 H 20 C 20.55,8 21,7.55 21,7 21,6.45 20.55,6 20,6 H 4 C 3.45,6 3,6.45 3,7 Z" />
</svg>
