<?xml version="1.0" encoding="UTF-8" standalone="no"?>
<svg
   xmlns:dc="http://purl.org/dc/elements/1.1/"
   xmlns:cc="http://creativecommons.org/ns#"
   xmlns:rdf="http://www.w3.org/1999/02/22-rdf-syntax-ns#"
   xmlns:svg="http://www.w3.org/2000/svg"
   xmlns="http://www.w3.org/2000/svg"
   xmlns:sodipodi="http://sodipodi.sourceforge.net/DTD/sodipodi-0.dtd"
   xmlns:inkscape="http://www.inkscape.org/namespaces/inkscape"
   inkscape:version="1.0 (4035a4fb49, 2020-05-01)"
   sodipodi:docname="search-24px.svg"
   id="svg861"
   version="1.1"
   width="24"
   viewBox="0 0 24 24"
   height="24">
  <metadata
     id="metadata867">
    <rdf:RDF>
      <cc:Work
         rdf:about="">
        <dc:format>image/svg+xml</dc:format>
        <dc:type
           rdf:resource="http://purl.org/dc/dcmitype/StillImage" />
      </cc:Work>
    </rdf:RDF>
  </metadata>
  <defs
     id="defs865" />
  <sodipodi:namedview
     inkscape:current-layer="svg861"
     inkscape:window-maximized="0"
     inkscape:window-y="0"
     inkscape:window-x="0"
     inkscape:cy="15.82"
     inkscape:cx="11.25"
     inkscape:zoom="15.96"
     showgrid="false"
     id="namedview863"
     inkscape:window-height="1020"
     inkscape:window-width="1898"
     inkscape:pageshadow="2"
     inkscape:pageopacity="0"
     guidetolerance="10"
     gridtolerance="10"
     objecttolerance="10"
     borderopacity="1"
     bordercolor="#666666"
     pagecolor="#ffffff" />
  <path
     id="path857"
     fill="none"
     d="M0 0h24v24H0z" />
  <path
     sodipodi:nodetypes="cccssssccccccsssss"
     id="path859"
     d="M 16.41,14.54 15.16,14.34 14.84,14.03 C 15.97,12.72 16.65,11.01 16.65,9.159 16.65,5.023 13.29,1.671 9.159,1.671 5.023,1.671 1.671,5.023 1.671,9.159 1.671,13.29 5.023,16.65 9.159,16.65 11.01,16.65 12.72,15.97 14.03,14.84 L 14.34,15.16 14.43,16.53 21.04,23.13 23.02,21.15 Z M 9.159,13.94 C 6.511,13.94 4.374,11.81 4.374,9.159 4.374,6.511 6.511,4.374 9.159,4.374 11.81,4.374 13.94,6.511 13.94,9.159 13.94,11.81 11.81,13.94 9.159,13.94 Z" />
</svg>
